<svg xmlns="http://www.w3.org/2000/svg" version="1.1" width="444px" height="364px" style="shape-rendering:geometricPrecision; text-rendering:geometricPrecision; image-rendering:optimizeQuality; fill-rule:evenodd; clip-rule:evenodd" xmlns:xlink="http://www.w3.org/1999/xlink">
<g><path style="opacity:1" fill="#fefefe" d="M -0.5,-0.5 C 147.5,-0.5 295.5,-0.5 443.5,-0.5C 443.5,120.833 443.5,242.167 443.5,363.5C 295.5,363.5 147.5,363.5 -0.5,363.5C -0.5,242.167 -0.5,120.833 -0.5,-0.5 Z"/></g>
<g><path style="opacity:1" fill="#020202" d="M 216.5,20.5 C 237.099,19.9205 250.266,29.5871 256,49.5C 260.26,69.7269 254.427,86.2269 238.5,99C 215.254,107.63 199.42,100.13 191,76.5C 184.143,50.562 192.643,31.8953 216.5,20.5 Z"/></g>
<g><path style="opacity:1" fill="#020202" d="M 107.5,48.5 C 128.921,45.7933 144.755,53.7933 155,72.5C 167.889,97.8387 179.223,123.839 189,150.5C 211.661,158.5 234.328,158.5 257,150.5C 266.777,123.839 278.111,97.8387 291,72.5C 300.954,53.9393 316.454,46.1059 337.5,49C 357.868,54.868 368.868,68.368 370.5,89.5C 369.762,104.147 363.429,115.647 351.5,124C 324.69,138.238 297.023,150.571 268.5,161C 259.173,183.93 259.173,206.93 268.5,230C 293.411,238.955 317.745,249.289 341.5,261C 368.903,274.643 376.403,295.476 364,323.5C 352.097,339.775 336.264,345.608 316.5,341C 308.209,338.268 301.376,333.434 296,326.5C 280.757,298.947 267.924,270.281 257.5,240.5C 239.932,234.468 221.932,232.968 203.5,236C 198.464,236.965 193.63,238.465 189,240.5C 179.434,265.633 168.768,290.299 157,314.5C 144.192,339.984 124.358,347.817 97.5,338C 78.7992,325.9 72.2992,309.067 78,287.5C 83.1098,276.057 91.2764,267.557 102.5,262C 127.034,250.066 152.034,239.233 177.5,229.5C 186.317,206.969 186.65,184.303 178.5,161.5C 148.188,151.007 119.188,137.84 91.5,122C 73.4105,104.824 70.9105,85.6573 84,64.5C 90.4181,56.8864 98.2514,51.553 107.5,48.5 Z"/></g>
</svg>
